<svg xmlns="http://www.w3.org/2000/svg" xmlns:xlink="http://www.w3.org/1999/xlink" viewBox="0 0 338.02 665"><defs><style>.cls-1{fill:url(#Degradado_sin_nombre_36);}</style><linearGradient id="Degradado_sin_nombre_36" x1="152.55" y1="596.59" x2="314.53" y2="126.15" gradientUnits="userSpaceOnUse"><stop offset="0.04" stop-color="#a5519a"/><stop offset="0.12" stop-color="#9f58a0"/><stop offset="0.25" stop-color="#8f6daf"/><stop offset="0.41" stop-color="#758ec9"/><stop offset="0.58" stop-color="#50bded"/><stop offset="0.6" stop-color="#4cc2f1"/><stop offset="0.65" stop-color="#52c3ec"/><stop offset="0.86" stop-color="#66c5dd"/><stop offset="1" stop-color="#6dc6d7"/></linearGradient></defs><g id="Capa_2" data-name="Capa 2"><g id="Capa_2-2" data-name="Capa 2"><path class="cls-1" d="M210.28,53.85,338,171.94v51L210.51,105C210.43,86,210.35,68.71,210.28,53.85Zm.49,134.59L338,306.08V252.93L210.62,135.14C210.67,152.2,210.73,170.12,210.77,188.44ZM210,439c-2,107-83.5,99.5-83.5,99.5L0,665H153c191-23,185-220,185-220V426.11L210.87,308.56C210.81,361.52,210.56,409.07,210,439Zm.89-169.61L338,386.92V337.26L210.84,219.68C210.86,236.25,210.88,252.93,210.89,269.39ZM338,0H272L338,61.08ZM238.65,0H210s.06,9.46.14,25.68L338,143.91v-52Z"/></g></g></svg>