<?xml version="1.0" encoding="UTF-8"?>
<svg id="Capa_2" data-name="Capa 2" xmlns="http://www.w3.org/2000/svg" viewBox="0 0 123.17 136.98">
  <g id="Capa_1-2" data-name="Capa 1" fill="#fff">
    <g>
      <path d="M99.68,124.24h-29.17c0,.55,0,1.07,0,1.59,0,3.01,.02,6.02-.01,9.03-.02,1.56-.6,2.11-2.17,2.12-5.43,.01-10.85,.01-16.28,0-1.65,0-2.26-.64-2.27-2.37-.02-2.96,0-5.92,0-8.88,0-.48-.04-.96-.07-1.51H20.71c0,.47,0,.94,0,1.41,0,3.06,.01,6.12,0,9.17,0,1.57-.57,2.16-2.11,2.17-5.47,.01-10.95,.01-16.43,0-1.52,0-2.15-.62-2.16-2.16-.02-7.2-.02-14.4,0-21.6,0-1.54,.7-2.21,2.3-2.23,1.86-.03,3.73,0,5.79,0v-2.15c0-30.53,0-61.06,0-91.6,0-.59-.03-1.19,.06-1.77,.14-.99,.7-1.61,1.77-1.64,.39-.01,.79-.02,1.18-.02,15.44,0,30.88,0,46.32,0,2.63,0,2.95,.34,2.95,3,0,14.55,0,29.1,0,43.65v1.95h1.8c14.5,0,29,0,43.5,0,3.08,0,3.31,.23,3.31,3.25,0,14.45,0,28.9,0,43.36v1.91c.62,.04,1.14,.09,1.66,.09,2.47,0,4.93-.01,7.4,.01,1.61,.02,2.36,.67,2.37,2.18,.03,7.2,.02,14.4,0,21.6,0,1.53-.67,2.16-2.17,2.17-5.47,.01-10.95,.01-16.43,0-1.54,0-2.11-.58-2.13-2.16-.03-2.96,0-5.92-.01-8.88,0-.53,0-1.06,0-1.69ZM11.89,17.42V62.3H56.66V17.45h-12.3c0,.6,0,1.14,0,1.67,0,5.13,.05,10.26-.05,15.38-.01,.81-.48,2-1.08,2.29-.58,.28-1.78-.16-2.42-.66-2.24-1.76-4.35-3.69-6.59-5.62-2.18,1.9-4.28,3.75-6.4,5.58-.74,.64-1.45,1.39-2.6,.87-1.14-.52-1.09-1.53-1.09-2.52,0-5.13,0-10.26,0-15.38,0-.53,0-1.05,0-1.63H11.89Zm48.56,48.63v44.81h44.79v-44.79h-12.31c0,.63,0,1.16,0,1.7,0,5.28,.04,10.55-.05,15.83-.01,.65-.49,1.61-1.02,1.86-.53,.25-1.48-.05-2.09-.4-.8-.46-1.44-1.19-2.15-1.8-1.59-1.37-3.18-2.74-4.77-4.11-2.27,1.96-4.35,3.86-6.55,5.6-.64,.51-1.68,.88-2.45,.76-1.12-.18-1.09-1.32-1.09-2.29,0-5.18,0-10.36,0-15.53,0-.52,0-1.05,0-1.62h-12.33Zm-26.21,13.08c-2.17,1.88-4.21,3.74-6.37,5.46-.69,.55-1.75,1.06-2.55,.94-1.25-.19-1.2-1.48-1.2-2.54,0-5.08,0-10.16,0-15.24,0-.57-.05-1.14-.08-1.69H11.89v44.82H56.64v-44.79h-12.27c0,.65,0,1.19,0,1.72,0,5.18,.04,10.36-.05,15.53-.01,.74-.53,1.78-1.13,2.12-.49,.27-1.62-.09-2.17-.53-2.27-1.81-4.42-3.77-6.76-5.8ZM3.69,120.35H116.57v-5.58H3.69v5.58Zm36.9-40.49v-13.81h-12.72v13.81c1.61-1.39,3.06-2.62,4.5-3.86,1.62-1.4,2.11-1.41,3.78,0,1.42,1.21,2.82,2.44,4.45,3.86Zm35.82,.07c1.64-1.42,3.06-2.63,4.47-3.87,1.69-1.48,2.23-1.49,3.9-.05,1.43,1.24,2.87,2.48,4.49,3.88v-13.8h-12.86v13.84ZM27.85,31.26c1.54-1.34,2.83-2.47,4.13-3.59,2.17-1.88,2.38-1.86,4.55,.05,1.3,1.14,2.62,2.25,4.1,3.52v-13.78h-12.78v13.81ZM3.72,124.22v9.11h13.36v-9.11H3.72Zm49.86,0v9.12h13.24v-9.12h-13.24Zm49.81,0v9.12h13.2v-9.12h-13.2Z"/>
      <path d="M110.16,53.29c-1.04-.5-2.19-.84-3.08-1.53-.85-.65-1.51-.77-2.38-.23-.46,.28-.95,.55-1.46,.7-2.12,.62-3.53,1.43-4.11,4.1-.74,3.35-4.05,3.15-6.87,3.06-2.14-.07-4.35-1.41-4.5-3.35-.18-2.28-1.33-3.14-3.28-3.53-.24-.05-.48-.15-.68-.28-1.6-1.05-3.13-1.48-4.67,.2-.34,.37-1.08,.45-1.65,.53-3.74,.49-8.02-4.24-7.01-7.77,.21-.73,.64-1.46,1.15-2.02,.64-.71,.66-1.29,.25-2.11-.61-1.23-1.2-2.49-1.59-3.8-.31-1.03-.86-1.42-1.87-1.51-2.74-.25-4.36-2.02-4.43-4.76-.02-.79-.02-1.58,0-2.37,.05-2.72,1.8-4.73,4.51-4.92,1.09-.08,1.54-.49,1.86-1.47,.43-1.3,.98-2.57,1.59-3.8,.41-.83,.33-1.4-.29-2.11-1.87-2.14-1.74-4.69,.26-6.74,.45-.46,.9-.91,1.36-1.36,2.3-2.27,4.52-2.34,7.09-.35,.4,.31,1.16,.38,1.69,.26,.7-.15,1.32-.67,2.01-.9,2-.65,3.97-1.26,3.74-3.99-.02-.21,.17-.45,.29-.67,1.22-2.19,4.1-3.04,7.84-2.32,1.93,.37,3.43,2.01,3.65,4.3,.11,1.19,.61,1.68,1.71,2,1.26,.37,2.42,1.1,3.68,1.5,.54,.17,1.38,.15,1.8-.17,2.75-2.05,4.85-1.95,7.31,.5,.53,.52,1.07,1.03,1.56,1.58,1.58,1.79,1.71,4.28,.11,6.06-.89,1-.97,1.81-.27,2.86,.24,.36,.45,.78,.56,1.2,.58,2.18,1.51,3.47,4.12,4.09,3.45,.81,3.07,4.21,3,7.04-.05,2.04-1.42,4.26-3.33,4.33-2.42,.09-3.03,1.47-3.52,3.3-.08,.28-.18,.58-.35,.81-1.11,1.58-1.22,2.96,.24,4.55,.6,.65,.68,2.06,.52,3.05-.42,2.65-3.99,5.73-6.53,6.04Zm3.28-40.28c-.68-.74-1.31-1.4-1.92-2.09-.76-.86-1.5-.95-2.39-.12-1.58,1.48-3.39,1.62-5.33,.73-1.16-.54-2.31-1.14-3.52-1.51-2.47-.74-4.06-2.13-4.16-4.87-.03-.96-.57-1.42-1.53-1.4-.54,.01-1.09,.03-1.63,0-1.27-.08-1.77,.54-1.8,1.76-.06,2.12-1.25,3.43-3.17,4.18-1.19,.46-2.43,.84-3.54,1.45-2.32,1.25-4.47,1.38-6.51-.54-.66-.62-1.32-.53-1.93,.13-.37,.4-.74,.8-1.15,1.15-.95,.79-1.04,1.52-.14,2.47,1.49,1.57,1.62,3.39,.71,5.33-.58,1.25-1.23,2.48-1.62,3.79-.73,2.42-2.28,3.75-4.78,3.89-1.01,.06-1.42,.52-1.4,1.48,.01,.59,0,1.18,0,1.78-.01,1.1,.47,1.57,1.62,1.6,2.09,.05,3.47,1.17,4.24,3.11,.58,1.46,1.16,2.92,1.83,4.35,.95,2.04,.83,3.94-.71,5.61-.8,.87-.7,1.53,.1,2.25,.37,.33,.73,.67,1.04,1.05,.8,.96,1.53,.96,2.47,.09,1.58-1.46,3.41-1.55,5.35-.68,1.43,.65,2.88,1.26,4.35,1.83,1.99,.78,3.09,2.18,3.27,4.32,.04,.42,.17,1.16,.34,1.19,1.24,.18,2.51,.34,3.75,.21,.33-.03,.73-1.05,.8-1.65,.28-2.16,1.49-3.45,3.47-4.16,1.16-.41,2.34-.79,3.42-1.36,2.29-1.21,4.41-1.27,6.39,.57,.68,.63,1.32,.54,1.94-.09,.38-.39,.74-.79,1.15-1.15,.93-.81,.97-1.57,.12-2.51-1.43-1.59-1.61-3.39-.68-5.34,.61-1.29,1.21-2.59,1.66-3.94,.77-2.33,2.26-3.64,4.74-3.72,.92-.03,1.36-.46,1.34-1.37,0-.49-.04-.99,0-1.48,.14-1.32-.26-1.98-1.74-2.07-2.19-.13-3.57-1.4-4.26-3.51-.43-1.3-.99-2.57-1.61-3.8-1.05-2.08-.9-3.97,.61-5.76,.28-.33,.48-.71,.82-1.21Z"/>
      <path d="M43.82,48.46c-1.57,0-3.14,0-4.71,0-1.18,0-1.88-.61-1.87-1.79,0-1.18,.72-1.76,1.9-1.76,3.09,0,6.19,0,9.28,0,1.18,0,1.88,.6,1.87,1.78,0,1.19-.73,1.76-1.9,1.76-1.52,0-3.05,0-4.57,0Z"/>
      <path d="M43.71,57.05c-1.52,0-3.05,0-4.57,0-1.18,0-1.89-.58-1.91-1.76-.01-1.18,.68-1.79,1.87-1.79,3.09,0,6.19,0,9.28,0,1.17,0,1.9,.56,1.91,1.75,.01,1.19-.69,1.78-1.87,1.79-1.57,.01-3.14,0-4.71,0Z"/>
      <path d="M92.29,97.08c-1.48,0-2.96,0-4.43,0-1.21,0-2.03-.53-2-1.83,.03-1.3,.9-1.77,2.08-1.77,2.96,0,5.91,0,8.87,0,1.2,0,2.04,.48,2.07,1.78,.03,1.31-.8,1.81-2.01,1.82-1.53,0-3.05,0-4.58,0Z"/>
      <path d="M92.35,102.08c1.48,0,2.96,0,4.44,0,1.18,0,2.05,.45,2.1,1.76,.05,1.32-.8,1.86-1.98,1.87-3.01,.04-6.01,.04-9.02,0-1.16-.01-2.02-.51-2.04-1.83-.02-1.14,.77-1.78,2.21-1.8,1.43-.02,2.86,0,4.29,0Z"/>
      <path d="M43.66,97.08c-1.47,0-2.95,0-4.42,0-1.21,0-2.03-.53-2-1.82,.03-1.27,.86-1.78,2.07-1.78,2.95,0,5.89-.01,8.84,0,1.43,0,2.21,.68,2.16,1.83-.06,1.3-.89,1.76-2.08,1.76-1.52,0-3.05,0-4.57,0Z"/>
      <path d="M43.84,102.08c1.47,0,2.95-.02,4.42,0,1.19,.02,2.02,.54,2.03,1.82,.01,1.22-.79,1.78-1.9,1.79-3.09,.04-6.19,.04-9.29,0-1.13-.01-1.91-.59-1.88-1.81,.03-1.28,.85-1.8,2.05-1.81,1.52-.01,3.05,0,4.57,0Z"/>
      <path d="M93.53,42.26c-6.97,0-12.64-5.66-12.6-12.58,.05-6.93,5.76-12.6,12.67-12.56,6.85,.04,12.47,5.67,12.52,12.56,.05,6.91-5.63,12.58-12.6,12.58Zm8.95-12.45c.03-5-3.82-8.92-8.8-8.98-5.05-.07-9.05,3.85-9.07,8.88-.02,4.96,3.9,8.97,8.81,9,5.05,.04,9.04-3.88,9.06-8.9Z"/>
    </g>
  </g>
</svg>