<svg xmlns="http://www.w3.org/2000/svg" data-name="Capa 2" viewBox="0 0 165.2 165.23"><g fill="#fc5c65" data-name="Capa 1"><path d="M0 88.4V76.79c.1-.4.25-.8.3-1.22.38-2.81.57-5.66 1.13-8.44C5.28 47.78 14.81 31.75 29.9 19.1 41.11 9.7 53.95 3.71 68.4 1.26 71.19.79 73.99.42 76.78 0h11.29c.47.1.93.26 1.4.3 8.25.59 16.2 2.52 23.85 5.62 36.56 14.85 58.81 53.96 49.92 94.39-9.85 44.82-55.6 74.69-102.14 61.98-32-8.74-55.09-34.82-60.15-67.25C.61 92.83.31 90.61 0 88.4Zm84.05 67.05c41.82-.94 74.54-36.87 71.16-78.88-3.06-37.98-36.67-69.93-78.68-66.59C38.62 13 6.58 46.61 10 88.68c3.03 37.28 34.72 67.4 74.06 66.76Z"/><path d="M118.5 82.66c-.12 17.52-12.95 32.56-30.27 35.35-19.42 3.12-38.25-10.45-41.04-29.84-1.81-12.55 2.02-23.32 11.27-32.06 2.36-2.22 5.36-2.24 7.3-.17 2.01 2.14 1.67 5.02-.77 7.38-7.29 7.07-10.14 15.63-7.66 25.52 2.51 10.01 9.06 16.41 19.03 19.03 15.06 3.97 30.46-6.82 32.09-22.31.93-8.85-1.99-16.25-8.39-22.33-1.51-1.44-2.1-3.12-1.62-5.1.44-1.81 1.7-2.94 3.5-3.43 1.64-.45 3.12-.04 4.35 1.05 6.55 5.83 10.45 13.11 11.74 21.77.25 1.69.31 3.42.46 5.13Z"/><path d="M77.75 56.7V44.13c0-2.99 2.02-5.09 4.84-5.09 2.81 0 4.83 2.1 4.83 5.09.01 8.43.01 16.87 0 25.3 0 2.99-2.02 5.09-4.84 5.08-2.82 0-4.82-2.1-4.83-5.09-.01-4.24 0-8.49 0-12.73Z"/></g></svg>