<?xml version="1.0" encoding="UTF-8"?>
<svg id="Capa_2" data-name="Capa 2" xmlns="http://www.w3.org/2000/svg" viewBox="0 0 107.57 153.6">
  <g id="Capa_1-2" data-name="Capa 1" fill="#fff">
    <g>
      <path d="M6.06,153.6c-2.82-.98-5.09-2.56-5.79-5.68-.22-.96-.26-1.98-.26-2.97C0,99.52,0,54.08,0,8.64,0,3.98,1.92,1.21,5.85,.22,6.56,.04,7.33,0,8.07,0,38.52,0,68.97,0,99.41,0c4.92,0,7.94,2.93,8.12,7.83,.01,.4,0,.8,0,1.2,0,37.74,0,75.48,.02,113.22,0,1.19-.31,2.03-1.16,2.88-9.12,9.05-18.19,18.15-27.27,27.24-.38,.38-.71,.82-1.06,1.23H6.06Zm73.37-9.27c.18,.09,.37,.17,.55,.26,.33-.44,.61-.92,1-1.31,6.78-6.8,13.55-13.6,20.37-20.36,.78-.78,1.06-1.54,1.06-2.62-.02-37.15-.02-74.3-.02-111.44,0-3.03-.73-3.74-3.84-3.74-29.85,0-59.71,0-89.56,0-3.15,0-3.84,.7-3.84,3.89,0,45.2,0,90.4,0,135.59,0,3.18,.69,3.88,3.85,3.88,21.15,0,42.3,0,63.46,0,.53,0,1.07,0,1.74,0,0-.7,0-1.24,0-1.78,0-6.05-.02-12.1,0-18.15,.02-5.11,3.15-8.23,8.22-8.25,1.95,0,3.9,0,5.85,0,2.13,0,4.26,0,6.42,0v5.13c-3.96,0-7.81,0-11.65,0-2.9,0-3.61,.72-3.61,3.64,0,3.9,0,7.8,0,11.7,0,1.18,0,2.36,0,3.54Z"/>
      <path d="M76.86,52.46c0,4.8-.02,9.59,.02,14.39,0,.92-.25,1.42-1.1,1.84-6.97,3.44-13.91,6.95-20.9,10.36-.6,.29-1.58,.31-2.18,.02-6.99-3.41-13.92-6.92-20.89-10.37-.81-.4-1.16-.85-1.16-1.8,.04-9.59,.03-19.19,0-28.78,0-.91,.23-1.42,1.09-1.85,6.98-3.44,13.92-6.96,20.91-10.38,.6-.29,1.58-.31,2.18-.02,6.99,3.42,13.93,6.94,20.91,10.39,.83,.41,1.15,.87,1.14,1.81-.05,4.8-.02,9.59-.02,14.39Zm-25.73,14.87c0-.7,0-1.25,0-1.79,0-3.95,.04-7.9-.04-11.85-.01-.61-.43-1.45-.92-1.77-4.42-2.82-8.9-5.55-13.36-8.29-.23-.14-.49-.24-.78-.38-.07,.29-.13,.43-.13,.56,0,6.75-.03,13.5,.04,20.25,0,.5,.6,1.21,1.11,1.47,5.19,2.66,10.41,5.28,15.66,7.83,.6,.29,1.58,.28,2.17,0,5.21-2.52,10.36-5.15,15.55-7.7,.93-.46,1.28-1,1.27-2.05-.05-6.3-.02-12.6-.03-18.9,0-.46-.04-.93-.07-1.59-5,3.08-9.77,6-14.48,8.99-.41,.26-.66,1.06-.66,1.62-.06,4-.03,8-.03,12,0,.52-.05,1.05-.08,1.62h-5.19Zm-3.68-23.05c1.92,1.16,3.69,2.17,5.39,3.28,.7,.45,1.2,.38,1.88-.04,4.39-2.75,8.82-5.46,13.22-8.19,.31-.19,.57-.45,.95-.75-1.92-.92-3.65-1.8-5.43-2.57-.41-.18-1.09-.15-1.48,.07-4.79,2.66-9.55,5.38-14.53,8.2Zm9.39-11.42c-1.84-1.67-3.57-2.03-5.6-.63-1.22,.84-2.66,1.36-3.99,2.03-2.83,1.42-5.66,2.84-8.74,4.39,1.34,.84,2.44,1.58,3.6,2.22,.26,.14,.77,.05,1.06-.11,4.54-2.6,9.07-5.23,13.67-7.9Z"/>
      <path d="M20.51,89.55v-5.03H86.98v5.03H20.51Z"/>
      <path d="M20.51,102.33v-4.99H86.97v4.99H20.51Z"/>
      <path d="M20.54,115.1v-4.94H86.96v4.94H20.54Z"/>
      <path d="M63.92,122.91v5.07H20.55v-5.07H63.92Z"/>
      <path d="M69.07,15.39v5.01h-30.54v-5.01h30.54Z"/>
    </g>
  </g>
</svg>