<svg xmlns="http://www.w3.org/2000/svg" data-name="Capa 2" viewBox="0 0 140.56 140.64"><g fill="#fff" data-name="Capa 1"><path d="M120.06 116.37c5.98 7.81 3.61 16.38-1.55 20.78-5.6 4.77-13.82 4.62-19.34-.4-5.03-4.58-6.82-13.06-1.2-20.25H71.66c3.1 3.98 4.26 8.4 2.98 13.31-.87 3.35-2.76 6.04-5.54 8.06-5.52 4.01-13.02 3.62-18.15-.91-5.8-5.12-6.33-11.98-1.53-20.54-3.78-.06-7.28-.98-10.45-3.01-5.05-3.24-7.93-7.88-8.96-13.76-2.39-13.69-4.8-27.37-7.19-41.05-1.35-7.74-2.69-15.47-4.04-23.21-.08-.44-.2-.88-.32-1.43H9.82C4.25 33.94 0 29.73 0 24.24c0-5.47 4.27-9.69 9.86-9.66 3.93.02 7.91-.23 11.78.31 8.59 1.21 14.86 7.85 16.21 16.46.64 4.07 1.41 8.13 2.13 12.3h1.87c28.22 0 56.43.11 84.65-.09 5.94-.04 9.9 3.08 9.17 9.38-.18 1.55-.57 3.18-1.3 4.54-1.06 1.96-2.8 2.74-5.87 3.29v36.21h2.37c5.44.03 9.69 4.28 9.69 9.69 0 5.41-4.25 9.67-9.69 9.69-3.52.01-7.05 0-10.81 0Zm-30.39-4.84h37.1c1.36 0 2.73.05 4.09-.02 1.89-.09 3.39-.93 4.28-2.65.87-1.67.73-3.31-.31-4.86-1.16-1.73-2.89-2.18-4.87-2.18-26.6.01-53.2.01-79.79 0-3.65 0-5.29-1.44-5.9-5.08-.91-5.46-1.86-10.92-2.81-16.37-2.81-16.06-5.65-32.12-8.43-48.19-1.19-6.88-5.74-11.64-12.65-12.52-3.33-.43-6.75-.22-10.12-.24-3.17-.01-5.43 2.09-5.38 4.9.05 2.77 2.27 4.76 5.37 4.78 2.47.02 4.95.12 7.42-.03 3.18-.19 5.42 1.46 5.99 5.2.75 4.93 1.67 9.82 2.53 14.73 2.08 11.9 4.17 23.8 6.25 35.7.84 4.81 1.6 9.64 2.53 14.43 1.52 7.79 7.22 12.38 15.2 12.38h39.52ZM42.12 55.78h85.23c.4 0 .85.1 1.2-.05.63-.25 1.64-.58 1.72-1.01.27-1.58.52-3.27.21-4.8-.29-1.44-1.85-1.43-3.16-1.43H40.84l1.28 7.28Zm52.32 41.14V80.1H70.38v16.82h24.06Zm5.02-16.84v16.78h24.06V80.08H99.46Zm-5.02-19.36H70.39v14.36h24.05V60.72Zm29.07 14.38V60.71H99.46V75.1h24.05ZM65.36 60.7h-22.4c.86 4.88 1.7 9.65 2.54 14.38h19.86V60.7Zm0 19.4H46.35c1 5.67 1.98 11.25 2.96 16.79h16.05V80.1Zm-4.72 36.28c-5.21-.05-9.65 4.29-9.75 9.54-.11 5.25 4.32 9.78 9.62 9.83 5.21.05 9.65-4.29 9.76-9.54.11-5.25-4.33-9.78-9.62-9.83Zm58.09 9.68c0-5.23-4.39-9.63-9.62-9.68-5.27-.05-9.76 4.42-9.75 9.7 0 5.28 4.52 9.74 9.77 9.68 5.24-.07 9.61-4.48 9.6-9.7Z"/><path d="M102.93 6.96c-.9-.86-1.82-1.7-2.69-2.6-1.14-1.18-1.19-2.62-.2-3.63 1-1.02 2.46-1 3.63.14 2.34 2.29 4.67 4.61 6.96 6.96 1.21 1.24 1.22 2.51.03 3.74a392.18 392.18 0 0 1-7.06 7.07c-1.1 1.07-2.54 1.05-3.52.09-.98-.97-1.01-2.42.04-3.52.9-.94 1.9-1.78 2.86-2.67-.06-.18-.12-.37-.19-.55-3.48.17-7.01.04-10.42.6-3.07.5-5.08 3.65-5.12 7.03-.04 3.79 0 7.57-.01 11.36 0 1.94-.85 2.97-2.41 2.98-1.57 0-2.42-1.03-2.43-2.96V20.1c-.02-4.89-3.06-7.92-7.94-7.94h-7.94c1.08 1.1 1.95 1.96 2.8 2.84 1.21 1.26 1.3 2.71.26 3.74-1.04 1.03-2.49.94-3.74-.28-2.26-2.23-4.51-4.48-6.74-6.75-1.34-1.37-1.34-2.58.01-3.95 2.23-2.27 4.48-4.51 6.74-6.75 1.24-1.22 2.7-1.3 3.74-.26 1.03 1.04.93 2.48-.28 3.74-.8.84-1.62 1.66-2.43 2.49-.03.03-.02.09-.05.33 2.11 0 4.21.1 6.29-.02 4.6-.27 8.58.94 11.86 4.99.42-.6.69-1.16 1.12-1.56 2.31-2.23 5.07-3.41 8.31-3.4h8.32c.07-.11.14-.22.21-.34ZM65.43 126.02c.01 2.76-2.1 4.89-4.84 4.89-2.74 0-4.86-2.13-4.85-4.88.01-2.68 2.09-4.78 4.76-4.81 2.76-.03 4.91 2.07 4.93 4.8ZM104.21 125.98c.03-2.73 2.18-4.79 4.97-4.75 2.65.04 4.73 2.18 4.72 4.86 0 2.74-2.14 4.85-4.9 4.83-2.72-.02-4.82-2.18-4.79-4.94Z"/></g></svg>